{
	"buffers":[{
		"uri":"data:application/octet-stream;base64,",
		"byteLength":3000
	},
	{
		"uri":"data:application/octet-stream;base64,",
		"byteLength":3000
	}],
	"asset":{
		"version":"2.0",
		"generator":"Created using the official Cinema 4D glTF Exporter 1.000x284978"
	},
	"scenes":[{
		"nodes":[0,
		1]
	}],
	"meshes":[{
		"name":"Extrude.4",
		"primitives":[{
			"attributes":{
				"POSITION":1
			},
			"indices":0,
			"material":0
		}]
	},
	{
		"name":"Extrude.3",
		"primitives":[{
			"attributes":{
				"POSITION":3
			},
			"indices":2,
			"material":0
		}]
	}],
	"nodes":[{
		"rotation":[0.0,
		0.0,
		0.0,
		-1.0],
		"name":"Extrude.4",
		"translation":[0.0,
		0.3608265519142151,
		0.0],
		"scale":[1.0,
		1.0,
		1.0],
		"mesh":0
	},
	{
		"rotation":[0.0,
		0.0,
		0.0,
		-1.0],
		"name":"Extrude.3",
		"translation":[0.0,
		0.3608265519142151,
		0.0],
		"scale":[1.0,
		1.0,
		1.0],
		"mesh":1
	}],
	"accessors":[{
		"bufferView":0,
		"byteOffset":0,
		"type":"SCALAR",
		"min":[0],
		"componentType":5123,
		"count":744,
		"max":[125]
	},
	{
		"bufferView":1,
		"byteOffset":0,
		"type":"VEC3",
		"min":[-0.35888671875,
		0.0,
		0.0],
		"componentType":5126,
		"count":126,
		"max":[0.92626953125,
		1.126953125,
		0.30000001192092898]
	},
	{
		"bufferView":2,
		"byteOffset":0,
		"type":"SCALAR",
		"min":[0],
		"componentType":5123,
		"count":744,
		"max":[125]
	},
	{
		"bufferView":3,
		"byteOffset":0,
		"type":"VEC3",
		"min":[-1.93310546875,
		0.0,
		0.0],
		"componentType":5126,
		"count":126,
		"max":[-0.64794921875,
		1.126953125,
		0.30000001192092898]
	}],
	"bufferViews":[{
		"buffer":0,
		"byteOffset":0,
		"byteLength":1488,
		"target":34963
	},
	{
		"buffer":0,
		"byteOffset":1488,
		"byteLength":1512,
		"target":34962
	},
	{
		"buffer":1,
		"byteOffset":0,
		"byteLength":1488,
		"target":34963
	},
	{
		"buffer":1,
		"byteOffset":1488,
		"byteLength":1512,
		"target":34962
	}],
	"materials":[{
		"pbrMetallicRoughness":{
			"baseColorFactor":[0.06336,
			0.0608,
			0.08,
			1.0],
			"metallicFactor":1.0,
			"roughnessFactor":0.3
		},
		"emissiveFactor":[0.0,
		0.0,
		0.0],
		"alphaMode":"OPAQUE",
		"doubleSided":true,
		"name":"PBR"
	}]
}