{
	"buffers":[{
		"uri":"data:application/octet-stream;base64,",
		"byteLength":3048
	}],
	"asset":{
		"version":"2.0",
		"generator":"Created using the official Cinema 4D glTF Exporter 1.000x284978"
	},
	"scenes":[{
		"nodes":[0]
	}],
	"meshes":[{
		"name":"Extrude",
		"primitives":[{
			"attributes":{
				"POSITION":1
			},
			"indices":0,
			"material":0
		}]
	}],
	"nodes":[{
		"rotation":[0.0,
		0.0,
		0.0,
		-1.0],
		"name":"Extrude",
		"translation":[0.0,
		0.3608265519142151,
		0.0],
		"scale":[1.0,
		1.0,
		1.0],
		"mesh":0
	}],
	"accessors":[{
		"bufferView":0,
		"byteOffset":0,
		"type":"SCALAR",
		"min":[0],
		"componentType":5123,
		"count":756,
		"max":[127]
	},
	{
		"bufferView":1,
		"byteOffset":0,
		"type":"VEC3",
		"min":[4.09326171875,
		-0.021484375,
		0.0],
		"componentType":5126,
		"count":128,
		"max":[4.97412109375,
		1.41015625,
		0.30000001192092898]
	}],
	"bufferViews":[{
		"buffer":0,
		"byteOffset":0,
		"byteLength":1512,
		"target":34963
	},
	{
		"buffer":0,
		"byteOffset":1512,
		"byteLength":1536,
		"target":34962
	}],
	"materials":[{
		"pbrMetallicRoughness":{
			"baseColorFactor":[0.06336,
			0.0608,
			0.08,
			1.0],
			"metallicFactor":1.0,
			"roughnessFactor":0.3
		},
		"emissiveFactor":[0.0,
		0.0,
		0.0],
		"alphaMode":"OPAQUE",
		"doubleSided":true,
		"name":"PBR"
	}]
}