{
	"buffers":[{
		"uri":"data:application/octet-stream;base64,",
		"byteLength":6384
	}],
	"asset":{
		"version":"2.0",
		"generator":"Created using the official Cinema 4D glTF Exporter 1.000x284978"
	},
	"scenes":[{
		"nodes":[0]
	}],
	"meshes":[{
		"name":"Extrude.5",
		"primitives":[{
			"attributes":{
				"POSITION":1
			},
			"indices":0,
			"material":0
		}]
	}],
	"nodes":[{
		"rotation":[0.0,
		0.0,
		0.0,
		-1.0],
		"name":"Extrude.5",
		"translation":[0.0,
		0.3608265519142151,
		0.0],
		"scale":[1.0,
		1.0,
		1.0],
		"mesh":0
	}],
	"accessors":[{
		"bufferView":0,
		"byteOffset":0,
		"type":"SCALAR",
		"min":[0],
		"componentType":5123,
		"count":1596,
		"max":[265]
	},
	{
		"bufferView":1,
		"byteOffset":0,
		"type":"VEC3",
		"min":[1.24853515625,
		-0.0302734375,
		0.0],
		"componentType":5126,
		"count":266,
		"max":[2.45751953125,
		1.130859375,
		0.30000001192092898]
	}],
	"bufferViews":[{
		"buffer":0,
		"byteOffset":0,
		"byteLength":3192,
		"target":34963
	},
	{
		"buffer":0,
		"byteOffset":3192,
		"byteLength":3192,
		"target":34962
	}],
	"materials":[{
		"pbrMetallicRoughness":{
			"baseColorFactor":[0.06336,
			0.0608,
			0.08,
			1.0],
			"metallicFactor":1.0,
			"roughnessFactor":0.3
		},
		"emissiveFactor":[0.0,
		0.0,
		0.0],
		"alphaMode":"OPAQUE",
		"doubleSided":true,
		"name":"PBR"
	}]
}